<mxfile host="app.diagrams.net" agent="Mozilla/5.0 (Windows NT 10.0; Win64; x64) AppleWebKit/537.36 (KHTML, like Gecko) Chrome/132.0.0.0 Safari/537.36 OPR/117.0.0.0" version="26.1.3">
  <diagram id="C5RBs43oDa-KdzZeNtuy" name="Page-1">
    <mxGraphModel grid="1" page="1" gridSize="10" guides="1" tooltips="1" connect="1" arrows="1" fold="1" pageScale="1" pageWidth="827" pageHeight="1169" math="0" shadow="0">
      <root>
        <mxCell id="WIyWlLk6GJQsqaUBKTNV-0" />
        <mxCell id="WIyWlLk6GJQsqaUBKTNV-1" parent="WIyWlLk6GJQsqaUBKTNV-0" />
        <mxCell id="Cc_6avdApDZDqS_O0vmW-4" style="edgeStyle=orthogonalEdgeStyle;rounded=0;orthogonalLoop=1;jettySize=auto;html=1;entryX=0.5;entryY=0;entryDx=0;entryDy=0;endArrow=none;startFill=0;" edge="1" parent="WIyWlLk6GJQsqaUBKTNV-1" source="Cc_6avdApDZDqS_O0vmW-0" target="Cc_6avdApDZDqS_O0vmW-3">
          <mxGeometry relative="1" as="geometry" />
        </mxCell>
        <mxCell id="Cc_6avdApDZDqS_O0vmW-5" style="edgeStyle=orthogonalEdgeStyle;rounded=0;orthogonalLoop=1;jettySize=auto;html=1;entryX=0.5;entryY=0;entryDx=0;entryDy=0;endArrow=none;startFill=0;" edge="1" parent="WIyWlLk6GJQsqaUBKTNV-1" source="Cc_6avdApDZDqS_O0vmW-0" target="Cc_6avdApDZDqS_O0vmW-2">
          <mxGeometry relative="1" as="geometry" />
        </mxCell>
        <mxCell id="Cc_6avdApDZDqS_O0vmW-6" style="edgeStyle=orthogonalEdgeStyle;rounded=0;orthogonalLoop=1;jettySize=auto;html=1;entryX=0.5;entryY=0;entryDx=0;entryDy=0;strokeColor=default;endArrow=none;startFill=0;" edge="1" parent="WIyWlLk6GJQsqaUBKTNV-1" source="Cc_6avdApDZDqS_O0vmW-0" target="Cc_6avdApDZDqS_O0vmW-1">
          <mxGeometry relative="1" as="geometry">
            <Array as="points">
              <mxPoint x="560" y="160" />
              <mxPoint x="200" y="160" />
            </Array>
          </mxGeometry>
        </mxCell>
        <mxCell id="Cc_6avdApDZDqS_O0vmW-0" value="&lt;font style=&quot;font-size: 19px;&quot;&gt;Hangman&lt;/font&gt;" style="rounded=0;whiteSpace=wrap;html=1;" vertex="1" parent="WIyWlLk6GJQsqaUBKTNV-1">
          <mxGeometry x="370" y="40" width="160" height="80" as="geometry" />
        </mxCell>
        <mxCell id="Cc_6avdApDZDqS_O0vmW-17" style="edgeStyle=orthogonalEdgeStyle;rounded=0;orthogonalLoop=1;jettySize=auto;html=1;entryX=0;entryY=0.5;entryDx=0;entryDy=0;endArrow=none;startFill=0;" edge="1" parent="WIyWlLk6GJQsqaUBKTNV-1" source="Cc_6avdApDZDqS_O0vmW-1" target="Cc_6avdApDZDqS_O0vmW-7">
          <mxGeometry relative="1" as="geometry" />
        </mxCell>
        <mxCell id="Cc_6avdApDZDqS_O0vmW-18" style="edgeStyle=orthogonalEdgeStyle;rounded=0;orthogonalLoop=1;jettySize=auto;html=1;entryX=0;entryY=0.5;entryDx=0;entryDy=0;endArrow=none;startFill=0;" edge="1" parent="WIyWlLk6GJQsqaUBKTNV-1" source="Cc_6avdApDZDqS_O0vmW-1" target="Cc_6avdApDZDqS_O0vmW-8">
          <mxGeometry relative="1" as="geometry" />
        </mxCell>
        <mxCell id="Cc_6avdApDZDqS_O0vmW-19" style="edgeStyle=orthogonalEdgeStyle;rounded=0;orthogonalLoop=1;jettySize=auto;html=1;entryX=0;entryY=0.5;entryDx=0;entryDy=0;endArrow=none;startFill=0;" edge="1" parent="WIyWlLk6GJQsqaUBKTNV-1" source="Cc_6avdApDZDqS_O0vmW-1" target="Cc_6avdApDZDqS_O0vmW-10">
          <mxGeometry relative="1" as="geometry" />
        </mxCell>
        <mxCell id="Cc_6avdApDZDqS_O0vmW-29" style="edgeStyle=orthogonalEdgeStyle;rounded=0;orthogonalLoop=1;jettySize=auto;html=1;entryX=0;entryY=0.5;entryDx=0;entryDy=0;endArrow=none;startFill=0;" edge="1" parent="WIyWlLk6GJQsqaUBKTNV-1" source="Cc_6avdApDZDqS_O0vmW-1" target="Cc_6avdApDZDqS_O0vmW-28">
          <mxGeometry relative="1" as="geometry">
            <mxPoint x="80" y="600" as="targetPoint" />
            <Array as="points">
              <mxPoint x="120" y="310" />
              <mxPoint x="90" y="310" />
              <mxPoint x="90" y="590" />
            </Array>
          </mxGeometry>
        </mxCell>
        <mxCell id="Cc_6avdApDZDqS_O0vmW-1" value="&lt;span style=&quot;font-size: 19px;&quot;&gt;Play Game&amp;nbsp;&lt;/span&gt;" style="rounded=0;whiteSpace=wrap;html=1;" vertex="1" parent="WIyWlLk6GJQsqaUBKTNV-1">
          <mxGeometry x="40" y="200" width="160" height="80" as="geometry" />
        </mxCell>
        <mxCell id="Cc_6avdApDZDqS_O0vmW-20" value="" style="edgeStyle=orthogonalEdgeStyle;rounded=0;orthogonalLoop=1;jettySize=auto;html=1;endArrow=none;startFill=0;entryX=0;entryY=0.5;entryDx=0;entryDy=0;" edge="1" parent="WIyWlLk6GJQsqaUBKTNV-1" source="Cc_6avdApDZDqS_O0vmW-2" target="Cc_6avdApDZDqS_O0vmW-11">
          <mxGeometry relative="1" as="geometry" />
        </mxCell>
        <mxCell id="Cc_6avdApDZDqS_O0vmW-21" style="edgeStyle=orthogonalEdgeStyle;rounded=0;orthogonalLoop=1;jettySize=auto;html=1;entryX=0;entryY=0.5;entryDx=0;entryDy=0;endArrow=none;startFill=0;" edge="1" parent="WIyWlLk6GJQsqaUBKTNV-1" source="Cc_6avdApDZDqS_O0vmW-2" target="Cc_6avdApDZDqS_O0vmW-12">
          <mxGeometry relative="1" as="geometry" />
        </mxCell>
        <mxCell id="Cc_6avdApDZDqS_O0vmW-22" style="edgeStyle=orthogonalEdgeStyle;rounded=0;orthogonalLoop=1;jettySize=auto;html=1;entryX=0;entryY=0.5;entryDx=0;entryDy=0;endArrow=none;startFill=0;" edge="1" parent="WIyWlLk6GJQsqaUBKTNV-1" source="Cc_6avdApDZDqS_O0vmW-2" target="Cc_6avdApDZDqS_O0vmW-13">
          <mxGeometry relative="1" as="geometry" />
        </mxCell>
        <mxCell id="Cc_6avdApDZDqS_O0vmW-27" style="edgeStyle=orthogonalEdgeStyle;rounded=0;orthogonalLoop=1;jettySize=auto;html=1;endArrow=none;startFill=0;" edge="1" parent="WIyWlLk6GJQsqaUBKTNV-1" source="Cc_6avdApDZDqS_O0vmW-2">
          <mxGeometry relative="1" as="geometry">
            <mxPoint x="340" y="600" as="targetPoint" />
            <Array as="points">
              <mxPoint x="340" y="390" />
              <mxPoint x="310" y="390" />
              <mxPoint x="310" y="600" />
            </Array>
          </mxGeometry>
        </mxCell>
        <mxCell id="Cc_6avdApDZDqS_O0vmW-31" style="edgeStyle=orthogonalEdgeStyle;rounded=0;orthogonalLoop=1;jettySize=auto;html=1;entryX=0;entryY=0.5;entryDx=0;entryDy=0;endArrow=none;startFill=0;" edge="1" parent="WIyWlLk6GJQsqaUBKTNV-1" source="Cc_6avdApDZDqS_O0vmW-2" target="Cc_6avdApDZDqS_O0vmW-30">
          <mxGeometry relative="1" as="geometry">
            <mxPoint x="320" y="695.5172413793103" as="targetPoint" />
            <Array as="points">
              <mxPoint x="340" y="470" />
              <mxPoint x="320" y="470" />
              <mxPoint x="320" y="690" />
            </Array>
          </mxGeometry>
        </mxCell>
        <mxCell id="Cc_6avdApDZDqS_O0vmW-2" value="&lt;font style=&quot;font-size: 19px;&quot;&gt;Set Up Game&lt;/font&gt;" style="rounded=0;whiteSpace=wrap;html=1;" vertex="1" parent="WIyWlLk6GJQsqaUBKTNV-1">
          <mxGeometry x="260" y="200" width="160" height="80" as="geometry" />
        </mxCell>
        <mxCell id="Cc_6avdApDZDqS_O0vmW-23" style="edgeStyle=orthogonalEdgeStyle;rounded=0;orthogonalLoop=1;jettySize=auto;html=1;entryX=0;entryY=0.5;entryDx=0;entryDy=0;endArrow=none;startFill=0;" edge="1" parent="WIyWlLk6GJQsqaUBKTNV-1" source="Cc_6avdApDZDqS_O0vmW-3" target="Cc_6avdApDZDqS_O0vmW-14">
          <mxGeometry relative="1" as="geometry" />
        </mxCell>
        <mxCell id="Cc_6avdApDZDqS_O0vmW-24" style="edgeStyle=orthogonalEdgeStyle;rounded=0;orthogonalLoop=1;jettySize=auto;html=1;entryX=0;entryY=0.5;entryDx=0;entryDy=0;endArrow=none;startFill=0;" edge="1" parent="WIyWlLk6GJQsqaUBKTNV-1" source="Cc_6avdApDZDqS_O0vmW-3" target="Cc_6avdApDZDqS_O0vmW-15">
          <mxGeometry relative="1" as="geometry" />
        </mxCell>
        <mxCell id="Cc_6avdApDZDqS_O0vmW-25" style="edgeStyle=orthogonalEdgeStyle;rounded=0;orthogonalLoop=1;jettySize=auto;html=1;entryX=0;entryY=0.5;entryDx=0;entryDy=0;endArrow=none;startFill=0;" edge="1" parent="WIyWlLk6GJQsqaUBKTNV-1" source="Cc_6avdApDZDqS_O0vmW-3" target="Cc_6avdApDZDqS_O0vmW-16">
          <mxGeometry relative="1" as="geometry" />
        </mxCell>
        <mxCell id="ODFRU5wXQSdFwaqsY2CC-1" style="edgeStyle=orthogonalEdgeStyle;rounded=0;orthogonalLoop=1;jettySize=auto;html=1;entryX=0;entryY=0.5;entryDx=0;entryDy=0;endArrow=none;startFill=0;" edge="1" parent="WIyWlLk6GJQsqaUBKTNV-1" source="Cc_6avdApDZDqS_O0vmW-3" target="ODFRU5wXQSdFwaqsY2CC-0">
          <mxGeometry relative="1" as="geometry" />
        </mxCell>
        <mxCell id="Cc_6avdApDZDqS_O0vmW-3" value="&lt;span style=&quot;font-size: 19px;&quot;&gt;Finish Game&lt;/span&gt;" style="rounded=0;whiteSpace=wrap;html=1;" vertex="1" parent="WIyWlLk6GJQsqaUBKTNV-1">
          <mxGeometry x="480" y="200" width="160" height="80" as="geometry" />
        </mxCell>
        <mxCell id="Cc_6avdApDZDqS_O0vmW-7" value="&lt;font style=&quot;font-size: 16px;&quot;&gt;Choose &quot;word&quot;&lt;/font&gt;" style="rounded=0;whiteSpace=wrap;html=1;" vertex="1" parent="WIyWlLk6GJQsqaUBKTNV-1">
          <mxGeometry x="140" y="320" width="140" height="60" as="geometry" />
        </mxCell>
        <mxCell id="Cc_6avdApDZDqS_O0vmW-8" value="&lt;font style=&quot;font-size: 16px;&quot;&gt;Amount of guesses&lt;/font&gt;" style="rounded=0;whiteSpace=wrap;html=1;" vertex="1" parent="WIyWlLk6GJQsqaUBKTNV-1">
          <mxGeometry x="140" y="400" width="140" height="60" as="geometry" />
        </mxCell>
        <mxCell id="Cc_6avdApDZDqS_O0vmW-10" value="&lt;font style=&quot;font-size: 16px;&quot;&gt;Letters in the word to be guessed&lt;/font&gt;" style="rounded=0;whiteSpace=wrap;html=1;" vertex="1" parent="WIyWlLk6GJQsqaUBKTNV-1">
          <mxGeometry x="140" y="480" width="140" height="60" as="geometry" />
        </mxCell>
        <mxCell id="Cc_6avdApDZDqS_O0vmW-11" value="&lt;font style=&quot;font-size: 16px;&quot;&gt;Input of letters&lt;/font&gt;" style="rounded=0;whiteSpace=wrap;html=1;" vertex="1" parent="WIyWlLk6GJQsqaUBKTNV-1">
          <mxGeometry x="360" y="320" width="140" height="60" as="geometry" />
        </mxCell>
        <mxCell id="Cc_6avdApDZDqS_O0vmW-12" value="&lt;font style=&quot;font-size: 16px;&quot;&gt;Amount of guesses used&lt;/font&gt;" style="rounded=0;whiteSpace=wrap;html=1;" vertex="1" parent="WIyWlLk6GJQsqaUBKTNV-1">
          <mxGeometry x="360" y="400" width="140" height="60" as="geometry" />
        </mxCell>
        <mxCell id="Cc_6avdApDZDqS_O0vmW-13" value="&lt;font style=&quot;font-size: 16px;&quot;&gt;Display amount of letters&lt;/font&gt;" style="rounded=0;whiteSpace=wrap;html=1;" vertex="1" parent="WIyWlLk6GJQsqaUBKTNV-1">
          <mxGeometry x="360" y="480" width="140" height="60" as="geometry" />
        </mxCell>
        <mxCell id="Cc_6avdApDZDqS_O0vmW-14" value="&lt;font style=&quot;font-size: 16px;&quot;&gt;Final Score&lt;/font&gt;" style="rounded=0;whiteSpace=wrap;html=1;" vertex="1" parent="WIyWlLk6GJQsqaUBKTNV-1">
          <mxGeometry x="580" y="320" width="140" height="60" as="geometry" />
        </mxCell>
        <mxCell id="Cc_6avdApDZDqS_O0vmW-15" value="&lt;font style=&quot;font-size: 16px;&quot;&gt;Guesses Left&lt;/font&gt;" style="rounded=0;whiteSpace=wrap;html=1;" vertex="1" parent="WIyWlLk6GJQsqaUBKTNV-1">
          <mxGeometry x="580" y="400" width="140" height="60" as="geometry" />
        </mxCell>
        <mxCell id="Cc_6avdApDZDqS_O0vmW-16" value="&lt;font style=&quot;font-size: 16px;&quot;&gt;Win or lose&lt;/font&gt;" style="rounded=0;whiteSpace=wrap;html=1;" vertex="1" parent="WIyWlLk6GJQsqaUBKTNV-1">
          <mxGeometry x="580" y="480" width="140" height="60" as="geometry" />
        </mxCell>
        <mxCell id="Cc_6avdApDZDqS_O0vmW-26" value="&lt;span style=&quot;font-size: 16px;&quot;&gt;Display what letters of the word have already been guessed&lt;/span&gt;" style="rounded=0;whiteSpace=wrap;html=1;" vertex="1" parent="WIyWlLk6GJQsqaUBKTNV-1">
          <mxGeometry x="340" y="560" width="180" height="80" as="geometry" />
        </mxCell>
        <mxCell id="Cc_6avdApDZDqS_O0vmW-28" value="&lt;span style=&quot;font-size: 16px;&quot;&gt;Set up user interface&lt;/span&gt;" style="rounded=0;whiteSpace=wrap;html=1;" vertex="1" parent="WIyWlLk6GJQsqaUBKTNV-1">
          <mxGeometry x="120" y="560" width="140" height="60" as="geometry" />
        </mxCell>
        <mxCell id="Cc_6avdApDZDqS_O0vmW-30" value="&lt;font style=&quot;font-size: 16px;&quot;&gt;Hint&lt;/font&gt;" style="rounded=0;whiteSpace=wrap;html=1;" vertex="1" parent="WIyWlLk6GJQsqaUBKTNV-1">
          <mxGeometry x="340" y="660" width="140" height="60" as="geometry" />
        </mxCell>
        <mxCell id="ODFRU5wXQSdFwaqsY2CC-0" value="&lt;font style=&quot;font-size: 16px;&quot;&gt;Quit or Retry&lt;/font&gt;" style="rounded=0;whiteSpace=wrap;html=1;" vertex="1" parent="WIyWlLk6GJQsqaUBKTNV-1">
          <mxGeometry x="580" y="560" width="140" height="60" as="geometry" />
        </mxCell>
      </root>
    </mxGraphModel>
  </diagram>
</mxfile>
